<?xml version="1.0" encoding="UTF-8"?>
<svg version="1.1" xmlns="http://www.w3.org/2000/svg" width="60" height="60">
<path d="M0 0 C0.80179688 0.00451172 1.60359375 0.00902344 2.4296875 0.01367188 C4.41149006 0.02546832 6.39325433 0.04340395 8.375 0.0625 C8.375 1.3825 8.375 2.7025 8.375 4.0625 C9.014375 4.371875 9.65375 4.68125 10.3125 5 C12.375 6.0625 12.375 6.0625 13.375 7.0625 C13.44813567 9.59299402 13.46747527 12.09554837 13.4375 14.625 C13.43298828 15.33591797 13.42847656 16.04683594 13.42382812 16.77929688 C13.41200864 18.54040013 13.39407263 20.30146036 13.375 22.0625 C12.385 22.3925 11.395 22.7225 10.375 23.0625 C10.2821875 24.42375 10.2821875 24.42375 10.1875 25.8125 C9.19053956 29.80034176 7.72611834 30.82842111 4.375 33.0625 C6.32103274 33.65320014 6.32103274 33.65320014 8.375 34.0625 C8.705 33.7325 9.035 33.4025 9.375 33.0625 C11.89594076 32.97402257 14.38930893 32.94722699 16.91015625 32.96484375 C18.04003212 32.96696617 18.04003212 32.96696617 19.19273376 32.96913147 C21.6076956 32.97474624 24.02256601 32.98730117 26.4375 33 C28.07096221 33.0050131 29.70442586 33.00957634 31.33789062 33.01367188 C35.35029585 33.02472046 39.36263241 33.04199494 43.375 33.0625 C43.47376923 38.04417305 43.47667797 42.73630402 42.375 47.625 C42.189375 48.47191406 42.00375 49.31882813 41.8125 50.19140625 C41.668125 50.80886719 41.52375 51.42632812 41.375 52.0625 C42.365 52.5575 42.365 52.5575 43.375 53.0625 C43.5 55.4375 43.5 55.4375 43.375 58.0625 C41.375 60.0625 41.375 60.0625 38.97727966 60.30973816 C37.97213821 60.30831314 36.96699677 60.30688812 35.93139648 60.30541992 C34.79359238 60.30849655 33.65578827 60.31157318 32.48350525 60.31474304 C31.25015945 60.30755753 30.01681366 60.30037201 28.74609375 60.29296875 C27.48612076 60.29251053 26.22614777 60.29205231 24.92799377 60.2915802 C22.26053475 60.28855464 19.5934193 60.28172585 16.92602539 60.26831055 C13.50035972 60.25130341 10.0748414 60.24749669 6.64913845 60.24825573 C3.38977555 60.2479191 0.13044377 60.23908533 -3.12890625 60.23046875 C-4.98196129 60.22879951 -4.98196129 60.22879951 -6.87245178 60.22709656 C-8.5744297 60.21752678 -8.5744297 60.21752678 -10.31079102 60.20776367 C-11.8173098 60.20204597 -11.8173098 60.20204597 -13.35426331 60.19621277 C-15.625 60.0625 -15.625 60.0625 -16.625 59.0625 C-16.83324525 56.15004147 -16.94976741 53.29077331 -17 50.375 C-17.03738281 49.57126953 -17.07476563 48.76753906 -17.11328125 47.93945312 C-17.1751415 43.73639255 -16.9822069 40.92394347 -14.30859375 37.56640625 C-11.45563884 34.90447889 -9.39360295 33.93891929 -5.625 33.0625 C-6.429375 32.52625 -7.23375 31.99 -8.0625 31.4375 C-11.09008424 28.63144631 -11.35010809 27.09424806 -11.625 23.0625 C-12.615 22.7325 -13.605 22.4025 -14.625 22.0625 C-14.73345031 19.49885517 -14.81249744 16.93983721 -14.875 14.375 C-14.90851562 13.65376953 -14.94203125 12.93253906 -14.9765625 12.18945312 C-15.04791404 8.28295657 -14.90034719 6.49315666 -12.734375 3.10546875 C-8.83041324 -0.67559051 -5.15734368 -0.05442002 0 0 Z " fill="#433E3C" transform="translate(16.625,-0.0625)"/>
<path d="M0 0 C0.80179688 0.00451172 1.60359375 0.00902344 2.4296875 0.01367188 C4.41149006 0.02546832 6.39325433 0.04340395 8.375 0.0625 C8.375 1.3825 8.375 2.7025 8.375 4.0625 C9.014375 4.371875 9.65375 4.68125 10.3125 5 C12.375 6.0625 12.375 6.0625 13.375 7.0625 C13.44813567 9.59299402 13.46747527 12.09554837 13.4375 14.625 C13.43298828 15.33591797 13.42847656 16.04683594 13.42382812 16.77929688 C13.41200864 18.54040013 13.39407263 20.30146036 13.375 22.0625 C12.385 22.3925 11.395 22.7225 10.375 23.0625 C10.2821875 24.42375 10.2821875 24.42375 10.1875 25.8125 C9.19053956 29.80034176 7.72611834 30.82842111 4.375 33.0625 C6.32103274 33.65320014 6.32103274 33.65320014 8.375 34.0625 C8.705 33.7325 9.035 33.4025 9.375 33.0625 C11.89594076 32.97402257 14.38930893 32.94722699 16.91015625 32.96484375 C18.04003212 32.96696617 18.04003212 32.96696617 19.19273376 32.96913147 C21.6076956 32.97474624 24.02256601 32.98730117 26.4375 33 C28.07096221 33.0050131 29.70442586 33.00957634 31.33789062 33.01367188 C35.35029585 33.02472046 39.36263241 33.04199494 43.375 33.0625 C43.47376923 38.04417305 43.47667797 42.73630402 42.375 47.625 C42.189375 48.47191406 42.00375 49.31882813 41.8125 50.19140625 C41.668125 50.80886719 41.52375 51.42632812 41.375 52.0625 C42.365 52.5575 42.365 52.5575 43.375 53.0625 C43.5 55.4375 43.5 55.4375 43.375 58.0625 C41.375 60.0625 41.375 60.0625 38.75 60.1875 C37.96625 60.14625 37.1825 60.105 36.375 60.0625 C36.375 59.4025 36.375 58.7425 36.375 58.0625 C37.014375 57.93875 37.65375 57.815 38.3125 57.6875 C38.993125 57.48125 39.67375 57.275 40.375 57.0625 C40.87 56.0725 40.87 56.0725 41.375 55.0625 C31.475 55.0625 21.575 55.0625 11.375 55.0625 C10.88 50.1125 10.88 50.1125 10.375 45.0625 C9.94623038 41.13247438 9.94623038 41.13247438 8.375 38.0625 C4.86099332 36.52163678 4.86099332 36.52163678 1.375 36.0625 C1.045 34.4125 0.715 32.7625 0.375 31.0625 C1.32375 30.52625 2.2725 29.99 3.25 29.4375 C6.7847601 26.75108233 7.26189532 25.23664254 8.375 21.0625 C9.035 20.7325 9.695 20.4025 10.375 20.0625 C11.03055119 17.53516765 11.03055119 17.53516765 11.375 15.0625 C10.715 15.0625 10.055 15.0625 9.375 15.0625 C9.375 15.7225 9.375 16.3825 9.375 17.0625 C8.715 17.0625 8.055 17.0625 7.375 17.0625 C7.045 16.4025 6.715 15.7425 6.375 15.0625 C2.26726997 12.6235353 -0.95472973 13.18840861 -5.46484375 13.8359375 C-8.02361148 14.10430735 -10.16042316 13.77802231 -12.625 13.0625 C-12.769375 12.27875 -12.91375 11.495 -13.0625 10.6875 C-13.50298925 8.09828982 -13.50298925 8.09828982 -14.625 6.0625 C-9.96211477 0.0007492 -7.43423815 -0.07844569 0 0 Z " fill="#383837" transform="translate(16.625,-0.0625)"/>
<path d="M0 0 C2.85418219 -0.348071 5.26879341 -1.0895978 8 -2 C10.078125 -1.3984375 10.078125 -1.3984375 12 0 C13.046875 2.4609375 13.046875 2.4609375 13.75 5.375 C14.11351562 6.80972656 14.11351562 6.80972656 14.484375 8.2734375 C15 11 15 11 15 15 C14.34 15.33 13.68 15.66 13 16 C13 17.32 13 18.64 13 20 C9.02084841 20.02886984 5.04172347 20.04675406 1.0625 20.0625 C-0.64196289 20.07506836 -0.64196289 20.07506836 -2.38085938 20.08789062 C-3.46044922 20.09111328 -4.54003906 20.09433594 -5.65234375 20.09765625 C-7.15269165 20.10551147 -7.15269165 20.10551147 -8.68334961 20.11352539 C-11 20 -11 20 -12 19 C-13.03086281 5.14282496 -13.03086281 5.14282496 -9 0 C-5.14836727 -2.37023553 -3.80706591 -2.02250376 0 0 Z " fill="#D9745C" transform="translate(14,38)"/>
<path d="M0 0 C9.9 0 19.8 0 30 0 C29 9 29 9 27 18 C19.08 18 11.16 18 3 18 C2.505 15.586875 2.01 13.17375 1.5 10.6875 C1.34337891 9.93170654 1.18675781 9.17591309 1.02539062 8.3972168 C0.44707048 5.54118734 0 2.92148456 0 0 Z " fill="#D0E2E3" transform="translate(28,35)"/>
<path d="M0 0 C0 0.66 0 1.32 0 2 C0.66 2 1.32 2 2 2 C2 1.34 2 0.68 2 0 C2.66 0 3.32 0 4 0 C4 1.65 4 3.3 4 5 C3.01 5.33 2.02 5.66 1 6 C0.9071875 7.36125 0.9071875 7.36125 0.8125 8.75 C0 12 0 12 -2.1875 14.375 C-5.54585782 16.31538452 -7.18239662 16.63626723 -11 16 C-13.8125 14.375 -13.8125 14.375 -16 12 C-16.8125 8.75 -16.8125 8.75 -17 6 C-17.99 5.67 -18.98 5.34 -20 5 C-20 3.35 -20 1.7 -20 0 C-19.34 0 -18.68 0 -18 0 C-18 0.66 -18 1.32 -18 2 C-17.34 2 -16.68 2 -16 2 C-15.67 1.01 -15.34 0.02 -15 -1 C-9.76602257 -3.99084425 -5.04602683 -2.91116933 0 0 Z " fill="#E2B99D" transform="translate(24,15)"/>
<path d="M0 0 C1.74216797 0.05414063 1.74216797 0.05414063 3.51953125 0.109375 C4.39996094 0.15578125 5.28039062 0.2021875 6.1875 0.25 C5.5275 1.57 4.8675 2.89 4.1875 4.25 C7.1575 4.745 7.1575 4.745 10.1875 5.25 C10.5175 7.23 10.8475 9.21 11.1875 11.25 C9.95 11.0334375 9.95 11.0334375 8.6875 10.8125 C3.50882998 9.98021375 -1.55389234 9.25 -6.8125 9.25 C-6.8125 9.91 -6.8125 10.57 -6.8125 11.25 C-6.1525 11.58 -5.4925 11.91 -4.8125 12.25 C-7.4525 11.92 -10.0925 11.59 -12.8125 11.25 C-12.44686654 4.9123533 -12.44686654 4.9123533 -9.6875 2.03125 C-6.1676841 -0.1495055 -4.10207042 -0.16574022 0 0 Z " fill="#6D463A" transform="translate(16.8125,1.75)"/>
<path d="M0 0 C9.9 0 19.8 0 30 0 C29.67 0.99 29.34 1.98 29 3 C23.17144343 4.34275621 17.54145213 3.89458473 11.625 3.5625 C10.60277344 3.51029297 9.58054687 3.45808594 8.52734375 3.40429688 C6.01786804 3.27530513 3.5088606 3.14037142 1 3 C0.67 2.01 0.34 1.02 0 0 Z " fill="#BCD5D7" transform="translate(28,55)"/>
<path d="M0 0 C-0.33 1.32 -0.66 2.64 -1 4 C-1.66 4 -2.32 4 -3 4 C-3.33 3.34 -3.66 2.68 -4 2 C-8.35884089 -0.37754958 -12.16543441 -0.16388358 -17 0 C-17 -0.66 -17 -1.32 -17 -2 C-11.43903393 -4.08536227 -5.18389755 -2.42995198 0 0 Z " fill="#46403D" transform="translate(27,13)"/>
<path d="M0 0 C0.99 0 1.98 0 3 0 C3.38863565 2.12254855 3.76053209 4.24816828 4.125 6.375 C4.33382813 7.55835938 4.54265625 8.74171875 4.7578125 9.9609375 C4.83773438 10.96382812 4.91765625 11.96671875 5 13 C4.34 13.66 3.68 14.32 3 15 C2.01 10.05 1.02 5.1 0 0 Z " fill="#534846" transform="translate(26,38)"/>
<path d="M0 0 C0.66 0 1.32 0 2 0 C1.125 7.75 1.125 7.75 0 10 C-0.66 10 -1.32 10 -2 10 C-1.125 2.25 -1.125 2.25 0 0 Z " fill="#585C5D" transform="translate(43,39)"/>
<path d="M0 0 C1.093125 0.185625 2.18625 0.37125 3.3125 0.5625 C6.93624133 1.2578068 6.93624133 1.2578068 10 0 C9.67 0.99 9.34 1.98 9 3 C6.69 3.33 4.38 3.66 2 4 C1.34 2.68 0.68 1.36 0 0 Z " fill="#4E4945" transform="translate(11,24)"/>
<path d="M0 0 C1.98 0.99 1.98 0.99 4 2 C4 3.32 4 4.64 4 6 C2.02 6.99 2.02 6.99 0 8 C0.185625 7.236875 0.37125 6.47375 0.5625 5.6875 C1.22819173 2.91032625 1.22819173 2.91032625 0 0 Z " fill="#4C4F4F" transform="translate(47,40)"/>
<path d="M0 0 C0.66 0 1.32 0 2 0 C1.814375 0.763125 1.62875 1.52625 1.4375 2.3125 C0.77180827 5.08967375 0.77180827 5.08967375 2 8 C0.68 7.34 -0.64 6.68 -2 6 C-2 2 -2 2 0 0 Z " fill="#4D4F50" transform="translate(37,40)"/>
</svg>
